<?xml version="1.0" encoding="UTF-8" standalone="no"?>
<!-- Generator: Adobe Illustrator 21.1.0, SVG Export Plug-In . SVG Version: 6.00 Build 0)  -->
<svg xmlns:dc="http://purl.org/dc/elements/1.1/" xmlns:cc="http://creativecommons.org/ns#" xmlns:rdf="http://www.w3.org/1999/02/22-rdf-syntax-ns#" xmlns:svg="http://www.w3.org/2000/svg" xmlns="http://www.w3.org/2000/svg" xmlns:xlink="http://www.w3.org/1999/xlink" xmlns:sodipodi="http://sodipodi.sourceforge.net/DTD/sodipodi-0.dtd" xmlns:inkscape="http://www.inkscape.org/namespaces/inkscape" version="1.1" id="Layer_1" x="0px" y="0px" viewBox="0 0 695.18768 879.1" xml:space="preserve" sodipodi:docname="Club_africain.svg" width="695.18768" height="879.09998" inkscape:version="0.92.3 (2405546, 2018-03-11)"><metadata id="metadata79"><rdf:RDF><cc:Work rdf:about=""><dc:format>image/svg+xml</dc:format><dc:type rdf:resource="http://purl.org/dc/dcmitype/StillImage"/><dc:title/></cc:Work></rdf:RDF></metadata><defs id="defs77"/><sodipodi:namedview pagecolor="#ffffff" bordercolor="#666666" borderopacity="1" objecttolerance="10" gridtolerance="10" guidetolerance="10" inkscape:pageopacity="0" inkscape:pageshadow="2" inkscape:window-width="1280" inkscape:window-height="736" id="namedview75" showgrid="false" inkscape:zoom="3.0372373" inkscape:cx="416.00536" inkscape:cy="569.26946" inkscape:window-x="0" inkscape:window-y="27" inkscape:window-maximized="1" inkscape:current-layer="g44" fit-margin-top="0" fit-margin-left="0" fit-margin-right="0" fit-margin-bottom="0"/>
<style type="text/css" id="style2">
	.st0{fill:#FFFFFF;}
	.st1{fill:#E40615;}
	.st2{clip-path:url(#SVGID_2_);}
	.st3{fill:none;stroke:#E40613;stroke-width:8;stroke-miterlimit:10;}
</style>
<g id="g72" transform="translate(0.1667878)">
	<path class="st0" d="m 350.6,30 c 152.4,0 260.5,64.4 300,90.6 -11.2,40.7 -16.1,75.8 -18.4,102.1 -2.9,33.8 -5.7,66.6 2.4,108.1 6.5,33.1 12,31.5 20.5,69.2 5.3,23.6 13.3,60.6 8.5,106 -5.5,52.4 -25.2,89.7 -34.8,107.5 -29.5,54.6 -67.9,86.5 -90.8,105.2 -27,22 -36.6,24.2 -101.6,65.6 -38.2,24.3 -68.7,45.1 -88.5,58.8 -26,-16.8 -60,-38.9 -99.6,-65.1 C 153.9,715.5 135.1,701 114.3,678 97.4,659.3 66.5,624.5 47.4,569.7 40.2,548.9 15.8,471.4 41.3,389.3 49.4,363.2 57.1,354.2 63.1,322.2 70.4,283.4 67.5,251.9 64.8,224.6 62.3,199.5 56.9,165.1 43.9,125.3 83.2,98.2 192.6,30.7 348.1,30 c 0.9,0 1.7,0 2.5,0 m 0,-30 V 30 0 c -0.9,0 -1.8,0 -2.7,0 -70.7,0.3 -140.1,13.7 -206.5,39.8 -40.7,16 -79.2,36.4 -114.5,60.6 l -18.4,12.7 6.9,21.3 c 9.9,30.4 16.5,61.7 19.5,93 2.5,25.2 5.3,53.7 -1.4,89.1 -3.2,17.2 -6.8,26.1 -11.4,37.4 -2.9,7.3 -6.2,15.5 -9.6,26.4 -26.8,86.3 -4.4,168 6.4,199.2 21.5,61.6 56.3,100 73,118.5 23.7,26.2 45.9,42.8 139.7,104.9 33.1,21.9 66.7,43.9 99.9,65.3 l 16.9,10.9 16.5,-11.4 c 28.4,-19.7 57.8,-39.2 87.5,-58.1 24.6,-15.6 41.5,-25.8 53.8,-33.2 20.9,-12.6 32.4,-19.5 50.7,-34.4 13.4,-10.9 29,-24.1 45.8,-41.8 20.7,-22 38.3,-46.3 52.4,-72.4 9.6,-17.7 32,-59.2 38.3,-118.6 5.4,-51.2 -4,-93.2 -9.1,-115.7 -4.7,-20.9 -8.8,-31.7 -12.2,-40.3 -3,-7.8 -5.4,-13.9 -8.1,-28 -7.3,-37.3 -4.8,-66.3 -1.9,-99.8 2.8,-32.4 8.6,-64.9 17.4,-96.7 l 5.8,-20.9 -18.1,-12 C 632.1,72.5 593.9,52.9 553.6,37.6 488.2,12.6 419.9,0 350.6,0 Z" id="path4" inkscape:connector-curvature="0" style="fill:#ffffff"/>
	<g id="g10">
		<path class="st0" d="M 342.5,851.4 C 309.4,830 275.9,808.1 242.8,786.2 146.2,722.3 128,707.9 106.9,684.6 91.1,667.1 58.1,630.7 38,572.9 27.8,543.6 6.8,466.9 31.8,386.2 c 3.1,-10.1 6.1,-17.6 9.1,-24.8 4.8,-11.8 8.9,-22 12.5,-41.2 C 60.6,282 57.5,250.6 55,225.4 51.8,192.7 44.9,160 34.6,128.2 l -2.3,-7.1 6.2,-4.2 C 72.5,93.6 109.7,73.9 149,58.5 212.8,33.3 279.9,20.3 348.1,20 c 0.9,0 1.7,0 2.6,0 66.9,0 132.8,12.2 195.9,36.1 38.9,14.8 75.8,33.7 109.7,56.2 l 6,4 -1.9,7 c -9.1,32.9 -15.2,66.7 -18.1,100.3 -2.9,33.6 -5.6,65.2 2.2,105.3 3.1,15.8 5.9,23.1 9.1,31.4 3.3,8.5 7,18.1 11.3,37.5 4.8,21.4 13.7,61.2 8.7,109.2 -5.8,55.5 -26.9,94.5 -36,111.2 -31.1,57.5 -71.5,90.5 -93.2,108.2 -17.2,14 -27.6,20.3 -48.4,32.8 -12.4,7.5 -29.4,17.7 -54.2,33.5 -29.9,19 -59.6,38.7 -88.2,58.5 l -5.5,3.8 z" id="path6" inkscape:connector-curvature="0" style="fill:#ffffff"/>
		<path class="st1" d="m 350.6,30 c 152.4,0 260.5,64.4 300,90.6 -11.2,40.7 -16.1,75.8 -18.4,102.1 -2.9,33.8 -5.7,66.6 2.4,108.1 6.5,33.1 12,31.5 20.5,69.2 5.3,23.6 13.3,60.6 8.5,106 -5.5,52.4 -25.2,89.7 -34.8,107.5 -29.5,54.6 -67.9,86.5 -90.8,105.2 -27,22 -36.6,24.2 -101.6,65.6 -38.2,24.3 -68.7,45.1 -88.5,58.8 -26,-16.8 -60,-38.9 -99.6,-65.1 C 153.9,715.5 135.1,701 114.3,678 97.4,659.3 66.5,624.5 47.4,569.7 40.2,548.9 15.8,471.4 41.3,389.3 49.4,363.2 57.1,354.2 63.1,322.2 70.4,283.4 67.5,251.9 64.8,224.6 62.3,199.5 56.9,165.1 43.9,125.3 83.2,98.2 192.6,30.7 348.1,30 c 0.9,0 1.7,0 2.5,0 m 0,-20 V 30 10 c -0.9,0 -1.8,0 -2.6,0 -69.4,0.3 -137.7,13.5 -202.9,39.1 -40,15.7 -77.8,35.7 -112.5,59.5 l -12.3,8.5 4.6,14.2 c 10.1,31.1 16.8,63.1 20,95.1 2.4,24.6 5.4,55.1 -1.5,92 -3.4,18.2 -7.4,28 -11.9,39.3 -2.8,7.1 -6.1,15.1 -9.3,25.6 -25.9,83.4 -4.2,162.7 6.3,192.9 20.8,59.7 54.7,97.1 71,115.1 23,25.4 44.9,41.8 137.8,103.3 33.1,21.9 66.7,43.8 99.8,65.2 l 11.2,7.3 11,-7.6 c 28.5,-19.8 58,-39.4 87.8,-58.3 24.7,-15.7 41.6,-25.9 54,-33.3 20.5,-12.3 31.8,-19.1 49.5,-33.6 22.3,-18.2 63.7,-52 95.7,-111.2 9.3,-17.2 31.1,-57.5 37.1,-114.9 5.2,-49.6 -3.9,-90.5 -8.9,-112.5 -4.5,-20.1 -8.4,-30.1 -11.8,-38.9 -3.2,-8.2 -5.7,-14.7 -8.6,-29.7 -7.6,-38.7 -4.9,-69.7 -2.1,-102.6 2.8,-33 8.8,-66.1 17.7,-98.5 l 3.9,-14 -12.1,-8 C 627,81.1 589.5,61.8 549.9,46.8 485.8,22.4 418.7,10 350.6,10 Z" id="path8" inkscape:connector-curvature="0" style="fill:#e40615"/>
	</g>
	<g id="g26">
		<defs id="defs13"><path id="SVGID_1_" d="m 624.3,579.1 c -22.4,55.4 -59.6,86.7 -110.1,128.1 -35.7,29.2 -89.4,67.9 -162.5,102.4 -2.2,1 -4.7,1 -6.9,-0.1 -24,-12.1 -49.4,-26.1 -75.7,-42.2 -33.2,-20.3 -62.8,-41 -88.9,-61 C 151.5,688 106.6,652.8 78.3,593.4 45.7,525 52.1,460.2 56.3,417.7 c 4.2,-42.2 14,-76.2 22,-98.8 178.6,-0.3 357.3,-0.7 535.9,-1 13.7,34.4 30.4,89.8 28.3,158.6 -0.8,28.2 -2.2,62.9 -18.2,102.6 z" inkscape:connector-curvature="0"/></defs>
		<clipPath id="SVGID_2_">
			<use xlink:href="#SVGID_1_" style="overflow:visible" id="use15" x="0" y="0" width="100%" height="100%"/>
		</clipPath>
		<g class="st2" clip-path="url(#SVGID_2_)" id="g24">
			<rect x="8.6999998" y="319" class="st1" width="690.79999" height="94.5" id="rect18" style="fill:#e40615"/>
			<rect x="8.6999998" y="483.29999" class="st1" width="690.79999" height="94.5" id="rect20" style="fill:#e40615"/>
			<rect x="8.6999998" y="647.5" class="st1" width="690.79999" height="94.5" id="rect22" style="fill:#e40615"/>
		</g>
	</g>
	<path class="st3" d="m 624.3,579.1 c -22.4,55.4 -59.6,86.7 -110.1,128.1 -35.7,29.2 -89.4,67.9 -162.5,102.4 -2.2,1 -4.7,1 -6.9,-0.1 -24,-12.1 -49.4,-26.1 -75.7,-42.2 -33.2,-20.3 -62.8,-41 -88.9,-61 C 151.5,688 106.6,652.8 78.3,593.4 45.7,525 52.1,460.2 56.3,417.7 c 4.2,-42.2 14,-76.2 22,-98.8 178.6,-0.3 357.3,-0.7 535.9,-1 13.7,34.4 30.4,89.8 28.3,158.6 -0.8,28.2 -2.2,62.9 -18.2,102.6 z" id="path28" inkscape:connector-curvature="0" style="fill:none;stroke:#e40613;stroke-width:8;stroke-miterlimit:10"/>
	<path class="st1" d="m 106.8,222.3 18.3,2.5 19.1,2.6 0.8,23.6 0.7,20.5 c -7.6,-1.2 -15.3,-2.1 -22.9,-2.6 -5.2,-0.3 -10.5,-0.5 -15.8,-0.5 -3.1,0 -6.1,0.1 -9.2,0.2 l 4.2,-21.8 4.8,-24.5 m -6.4,-9 c -4.1,21.3 -8.3,42.6 -12.4,63.8 5.8,-0.5 12.2,-0.8 19,-0.8 4.9,0 9.9,0.1 15.2,0.5 11.9,0.8 22.5,2.4 31.8,4.2 -0.7,-20.3 -1.3,-40.5 -2,-60.8 -17.2,-2.2 -34.4,-4.5 -51.6,-6.9 z" id="path30" inkscape:connector-curvature="0" style="fill:#e40615"/>
	<path class="st1" d="m 581.1,216.4 8.9,27.7 7.8,24.4 c -2.6,-0.1 -5.2,-0.1 -7.8,-0.1 -5.2,0 -10.5,0.2 -15.8,0.5 -7.7,0.5 -15.3,1.4 -22.9,2.6 l 0.7,-20 0.8,-25.3 8.7,-3 19.6,-6.8 m 5.1,-10.2 c -13.8,4.7 -27.5,9.4 -41.3,14.2 -0.7,20.3 -1.3,40.5 -2,60.8 9.2,-1.9 19.9,-3.5 31.8,-4.2 5.3,-0.3 10.4,-0.5 15.2,-0.5 6.8,0 13.2,0.3 19,0.8 -7.5,-23.8 -15.1,-47.4 -22.7,-71.1 z" id="path32" inkscape:connector-curvature="0" style="fill:#e40615"/>
	<path class="st1" d="m 68.7,122.7 c 6.6,20.1 13,45.4 16.5,75.2 3.6,31 2.9,58.1 0.9,79.8 41,-23.5 135.4,-70.2 264,-69.7 126,0.5 218.5,46.2 259.4,69.7 -1.8,-21.4 -2.4,-47.5 0.6,-77 3.2,-31 9.4,-57.7 15.9,-78.9 C 587.4,97.1 484.9,38.5 341.8,40.2 205.2,41.9 107.5,97.7 68.7,122.7 Z" id="path34" inkscape:connector-curvature="0" style="fill:#e40615"/>
	<g id="g44">
		<path class="st1" d="m 289.3,296.6 c 0,0.5 -0.8,0.7 -2.3,0.7 h -2.2 c -0.8,-0.1 -4.1,-0.1 -9.9,0 h -11.2 c -0.7,0 -1.6,0 -2.5,0 -0.8,0 -1.3,0 -1.4,0 -1.5,0 -2.2,-0.3 -2.2,-0.8 0,-0.4 0.1,-0.6 0.4,-0.6 0.3,-0.1 1.5,-0.1 3.5,-0.1 2.6,-0.1 4.2,-0.4 4.8,-1 0.4,-0.5 0.5,-1.3 0.5,-2.4 V 259 c 0,-7.1 -0.1,-11 -0.2,-11.6 -0.2,-1 -1,-1.4 -2.5,-1.4 h -4.5 c -1.5,0.1 -2.3,-0.2 -2.3,-0.7 0,-0.4 1,-0.6 3,-0.8 5.1,-0.4 9.4,-1.7 13,-3.8 0.2,-0.1 1.3,-0.8 3.2,-2.1 l 3.4,-2.1 0.4,1.4 c 0,0.2 0,0.7 0,1.4 V 283 c 0,5.5 0,8.6 0,9.3 0.1,2.4 1.3,3.6 3.6,3.5 3.6,-0.1 5.4,0.1 5.4,0.8 z" id="path36" inkscape:connector-curvature="0" style="fill:#e40615"/>
		<path class="st1" d="m 344.8,263.6 c 0,7 -1.8,13.4 -5.3,19.1 -3.5,5.7 -8.4,10 -14.5,13 -4.9,2.3 -11.1,3.5 -18.4,3.5 -1.3,0 -1.9,-0.2 -1.9,-0.6 0,-0.4 0.5,-0.6 1.6,-0.6 2.9,-0.1 6.1,-0.9 9.5,-2.6 3.8,-1.9 7,-5 9.8,-9.3 2.8,-4.3 4.3,-8.8 4.8,-13.6 -3.4,2.9 -7,4.3 -10.7,4.3 -5.4,0 -9.9,-1.7 -13.4,-5.2 -3.5,-3.5 -5.3,-7.9 -5.3,-13.2 0,-6 2,-11 5.9,-15 3.9,-4 8.8,-6 14.7,-6 4.6,0 8.9,1.3 12.8,3.9 6.9,4.5 10.4,12 10.4,22.3 z m -14.1,-2.9 c 0,-5.5 -0.5,-10.3 -1.6,-14.2 -1.4,-5.1 -3.7,-7.7 -7,-7.7 -2.3,0 -4,1.2 -5,3.6 -1,2.4 -1.4,6.5 -1.4,12.4 0,12.6 2.7,18.9 8.2,18.9 2.4,0 4.1,-1.3 5.2,-3.8 1.1,-2.5 1.6,-5.6 1.6,-9.2 z" id="path38" inkscape:connector-curvature="0" style="fill:#e40615"/>
		<path class="st1" d="m 396,277.3 c 0,0.5 -0.1,1.1 -0.2,1.7 -0.9,5.1 -1.6,11.2 -2.1,18.5 -7.2,-0.2 -14.2,-0.4 -21.1,-0.4 -0.4,0 -1.1,0 -2.2,0 -1.4,0 -2.6,0 -3.6,0 l -12,0.2 c -0.4,0 -0.9,0 -1.4,0.1 h -0.7 c -2.2,0 -3.2,-0.4 -3.2,-1.1 0,-0.5 0.4,-1.1 1.3,-1.8 7.3,-5.8 13.5,-11.5 18.6,-17.1 5.1,-5.6 7.6,-12.6 7.6,-21.1 0,-5.6 -1.4,-9.9 -4,-12.9 -1.9,-2.1 -4.5,-3.1 -7.7,-3.1 -2.7,0 -4.9,0.8 -6.7,2.3 -1.8,1.5 -2.7,3.1 -2.7,4.8 0,1 0.4,1.6 1.2,1.8 0.3,0.1 1.2,0.2 2.6,0.3 1.8,0.1 3.3,0.8 4.5,2 1.1,1.2 1.7,2.8 1.7,4.6 0,1.9 -0.5,3.4 -1.6,4.5 -1.1,1.2 -2.5,1.8 -4.2,1.8 -2.3,0 -4.1,-0.9 -5.5,-2.6 -1.4,-1.7 -2.1,-4 -2.1,-6.9 0,-4.9 1.7,-8.8 5,-11.6 3.3,-2.8 7.9,-4.2 13.7,-4.2 6,0 10.9,1.7 14.7,5 3.8,3.3 5.7,7.6 5.7,12.9 0,10.4 -9.6,20.8 -28.7,31.3 h 3 8.2 c 6.5,-0.1 10.8,-0.2 12.7,-0.5 2.6,-0.2 4.3,-0.8 5.2,-1.8 0.7,-0.8 1.2,-2.4 1.7,-4.9 0.4,-2.1 0.8,-3.1 1.4,-3.1 0.6,0.1 0.9,0.5 0.9,1.3 z" id="path40" inkscape:connector-curvature="0" style="fill:#e40615"/>
		<path class="st1" d="m 447.6,268.3 c 0,8.8 -2.1,16 -6.4,21.6 -4.3,5.6 -9.7,8.5 -16.2,8.5 -6.5,0 -12.1,-3 -16.7,-8.9 -4.6,-5.9 -6.9,-13.1 -6.9,-21.5 0,-11.2 3.5,-19.9 10.5,-25.9 3.7,-3.2 8,-4.8 13,-4.8 4.6,0 8.4,1.2 11.6,3.7 3.4,2.6 6,6.4 8.1,11.3 2,4.9 3,10.2 3,16 z m -14.9,-1.6 c 0,-12.7 -0.9,-20.9 -2.8,-24.7 -1.1,-2.2 -2.8,-3.2 -5.2,-3.2 -3.1,0 -5.2,2.1 -6.5,6.3 -1.4,4.6 -2.1,11.4 -2.1,20.4 0,14.3 1.3,23.6 4,28 1.3,2.2 3,3.3 5,3.3 3,0 5,-2.1 6,-6.4 1.1,-4.5 1.6,-12.4 1.6,-23.7 z" id="path42" inkscape:connector-curvature="0" style="fill:#e40615"/>
	</g>
	<g id="g52">
		<g id="g50">
			<path class="st0" d="m 381,696.4 -0.6,-13.6 3.1,-0.8 c 3.3,-0.9 6.6,-1.9 9.8,-3.2 6,-2.3 11.8,-5.3 17.2,-8.8 l 0.5,-0.4 0.6,-0.2 c 1.3,-0.3 2.4,-0.9 3.3,-1.7 1,-0.9 1.9,-2.3 2.5,-6.7 0.9,-7.1 1,-10.1 -1.3,-17.1 -3.7,-11.1 -24.9,-97.4 -55.8,-224.8 -0.9,3.2 -3.3,12.6 -3.3,12.6 l -14.4,0.2 1.3,-5.1 c 2.9,-10.9 5.8,-22 8.8,-33.5 v -0.1 c 2.2,-7.2 5.3,-18.7 9.2,-34.2 3.8,-15.7 5.9,-20 10.2,-20 4.5,0 8,4.2 12,25.9 v 0.3 c 5.2,28 31.2,123.2 77.2,283.1 l 0.1,0.3 v 0.3 c 0.9,6.2 2.6,12.1 5.1,17.6 2.5,5.5 4.2,9.1 8.1,12.5 2.7,2.4 5.9,4.1 9.6,5.2 l 2.5,0.7 1.4,12.2 z" id="path46" inkscape:connector-curvature="0" style="fill:#ffffff"/>
			<path class="st1" d="m 372.2,343.1 c 3.9,0 7.5,19.4 8.1,22.9 4.8,25.8 27,108.8 77.3,283.5 1.2,8.2 3.5,14.5 5.4,18.6 2.4,5.4 4.5,9.8 9.1,13.8 4.1,3.5 8.4,5.2 11.1,6 0.2,1.7 0.4,3.4 0.6,5.1 -32.9,-0.2 -65.9,-0.4 -98.8,-0.6 -0.1,-2.2 -0.2,-4.4 -0.3,-6.6 3.2,-0.8 6.6,-1.9 10.2,-3.3 7.1,-2.8 13.1,-6 17.9,-9.1 1.3,-0.3 3.3,-1.1 5,-2.7 1.9,-1.8 3.1,-4.3 3.7,-9.1 1,-7.4 1.1,-11.2 -1.5,-18.9 -3.9,-11.5 -27.1,-106.3 -59.4,-239.8 -2.2,8.5 -4.4,16.8 -6.6,24.9 l -6.1,0.1 c 2.9,-10.9 5.8,-22 8.8,-33.5 2.2,-7.3 5.3,-18.8 9.2,-34.4 2.7,-11.2 4.8,-16.9 6.3,-16.9 m 0,-8 c -6.7,0 -9.2,6.9 -10.2,9.5 -1.2,3.1 -2.4,7.6 -3.9,13.6 -3.9,15.4 -7,26.9 -9.1,34 v 0.1 0.1 c -3,11.4 -6,22.6 -8.8,33.5 l -2.7,10.2 10.5,-0.1 6.1,-0.1 6.1,-0.1 0.1,-0.3 c 29.6,122 48.5,198.9 52.1,209.8 2,6 2,8.4 1.1,15.3 -0.2,1.6 -0.6,3.7 -1.3,4.3 -0.4,0.3 -0.9,0.6 -1.5,0.8 l -1.3,0.3 -1.1,0.7 c -5.2,3.4 -10.7,6.2 -16.5,8.4 -3,1.2 -6.2,2.2 -9.3,3 l -6.2,1.6 0.3,6.5 0.2,4.4 0.1,2.2 0.3,7.6 h 7.6 l 49.4,0.3 49.4,0.3 9.1,0.1 -1.1,-9 -0.2,-1.6 -0.4,-3.5 -0.6,-5.2 -5.1,-1.5 c -3.1,-0.9 -5.8,-2.4 -8.1,-4.4 -3.2,-2.8 -4.7,-5.9 -7,-11.1 -2.3,-5.2 -3.9,-10.7 -4.7,-16.5 l -0.1,-0.5 -0.2,-0.5 C 419.3,487.6 393.3,392.5 388.1,364.6 l -0.1,-0.3 c -0.4,-2.2 -1.5,-8.1 -3.1,-13.6 -1.4,-5.4 -4.2,-15.6 -12.7,-15.6 z" id="path48" inkscape:connector-curvature="0" style="fill:#e40615"/>
		</g>
	</g>
	<g id="g60">
		<g id="g58">
			<path class="st0" d="m 458,651.5 -0.6,-1.9 c -1.9,-5.7 -4.7,-9.6 -8.3,-11.6 -1.9,-1 -3.8,-1.5 -6.1,-1.5 -4.7,0 -10.5,2 -17.8,4.5 -6.5,2.2 -14,4.8 -23.2,6.9 -14.1,3.2 -24.6,3.7 -34,4 -3.5,0.1 -7.7,0.3 -12.3,0.3 -24.5,0 -46.1,-4.6 -66,-14.1 -10,-4.8 -20,-11.1 -28.9,-18.4 -9.8,-8 -30.1,-24.6 -40,-53.5 -5,-14.5 -5.5,-27 -5.4,-33.1 0.1,-5 1,-18.4 7.1,-34.1 10.3,-26.4 28.5,-41.7 36.2,-48.2 26.4,-22.2 62.7,-35.4 97,-35.4 3.5,0 6.9,0.1 10.3,0.4 19.8,1.7 38.5,3.2 52,10.1 6.6,3.3 10.7,4.1 19.6,5.8 1.7,0.3 3.5,0.6 5.1,0.6 1.6,0 3,-0.3 4.4,-0.8 2.5,-1 4.1,-2.8 6.6,-5.4 2.3,-2.4 4.3,-5.1 6,-8 l 7.5,-12.7 -0.3,108.6 -7.7,-22 c -3.8,-10.9 -11.6,-26.7 -26.9,-40.2 -3.5,-3.1 -14.2,-12.5 -29.8,-17.7 -7.9,-2.6 -16.5,-4 -25.5,-4 -24.1,0 -48.2,9.9 -64.7,26.4 -24.9,25 -25.5,57 -25.8,78.2 -0.3,17.8 -0.7,42.1 15.5,65 26,36.5 71,37.3 72.9,37.3 0.4,0 0.9,0 1.4,0 19.7,0 37.8,-6 52.5,-17.5 18,-14 25.6,-32.2 28.5,-41.7 l 0.9,-2.8 h 9 l 0.2,79.5 z" id="path54" inkscape:connector-curvature="0" style="fill:#ffffff"/>
			<path class="st1" d="m 355.7,419.3 c 3.4,0 6.7,0.1 9.9,0.4 19.2,1.6 37.7,3.2 50.6,9.6 7.1,3.6 11.6,4.4 20.7,6.1 2,0.4 3.9,0.7 5.9,0.7 2,0 3.9,-0.3 5.9,-1.1 3.2,-1.3 5.3,-3.5 8,-6.3 3.1,-3.3 5.3,-6.5 6.6,-8.7 -0.1,23.6 -0.2,47.2 -0.2,70.8 -3.2,-9 -10.7,-26.6 -28,-41.9 -3.9,-3.5 -15.1,-13.1 -31.2,-18.5 -8.4,-2.8 -17.5,-4.2 -26.7,-4.2 -24.2,0 -49.5,9.5 -67.5,27.6 -26,26.2 -26.6,60.1 -27,81 -0.3,18.2 -0.8,43.4 16.3,67.4 26.8,37.7 72.9,38.9 75.9,39 0.4,0 0.9,0 1.4,0 9,0 32.8,-1.1 54.9,-18.3 20.1,-15.7 27.5,-35.9 29.9,-43.7 0.7,0 1.4,0 2.1,0 0.1,23.3 0.1,46.6 0.2,70 -0.7,-0.2 -1.4,-0.5 -2.1,-0.7 -2.5,-7.7 -6.3,-11.8 -10.1,-13.9 -2.6,-1.4 -5.2,-2 -8.1,-2 -9.7,0 -22,6.9 -41.9,11.5 -13.7,3.1 -24.2,3.6 -33.2,3.9 -3.5,0.1 -7.6,0.3 -12.2,0.3 -16.6,0 -39.8,-2 -64.3,-13.7 -5,-2.4 -16,-8 -28.1,-17.9 -10.3,-8.4 -29.4,-24.4 -38.7,-51.7 -5.3,-15.4 -5.2,-28.2 -5.2,-31.7 0.1,-3.1 0.5,-16.5 6.8,-32.7 9.8,-25 27,-39.8 35,-46.6 28.2,-23.9 64.2,-34.7 94.4,-34.7 m 115.7,-28.7 -15,25.3 c -1.5,2.6 -3.4,5.1 -5.5,7.3 -2.4,2.6 -3.7,3.8 -5.3,4.5 -0.9,0.4 -1.7,0.5 -2.8,0.5 -1.4,0 -2.9,-0.3 -4.4,-0.5 -8.8,-1.6 -12.5,-2.3 -18.5,-5.4 -14.2,-7.2 -33.3,-8.8 -53.5,-10.5 -3.4,-0.3 -7,-0.4 -10.6,-0.4 -35.3,0 -72.5,13.6 -99.6,36.4 -7.3,6.1 -26.6,22.4 -37.3,49.8 -6.1,15.7 -7.2,28.9 -7.4,35.5 -0.1,6.4 0.4,19.4 5.6,34.5 10.2,30 31.2,47.1 41.2,55.3 9.1,7.5 19.4,14 29.7,18.9 20.5,9.7 42.6,14.5 67.8,14.5 4.7,0 8.9,-0.2 12.5,-0.3 9,-0.4 20.3,-0.8 34.7,-4.1 9.4,-2.2 17.3,-4.8 23.6,-7 7,-2.4 12.5,-4.3 16.5,-4.3 1.6,0 2.9,0.3 4.2,1 2.7,1.5 4.9,4.7 6.4,9.4 l 1.3,3.8 3.8,1.3 1.3,0.4 0.8,0.3 10.6,3.5 v -11.1 l -0.2,-70 v -8 h -8 -2.3 -5.9 l -1.7,5.7 c -2.8,9.1 -10,26.4 -27.1,39.7 -13.9,10.9 -31.2,16.6 -50,16.6 -0.5,0 -0.9,0 -1.3,0 -1.8,0 -44.8,-0.8 -69.5,-35.6 -15.5,-21.8 -15.1,-44.4 -14.8,-62.6 0.4,-20.5 0.9,-51.6 24.7,-75.5 15.7,-15.8 38.8,-25.2 61.8,-25.2 8.5,0 16.7,1.3 24.2,3.8 14.8,4.9 25,13.9 28.4,16.9 14.6,12.9 22.1,28.1 25.7,38.5 l 15.4,43.9 0.2,-46.6 0.2,-70.5 v -0.2 z" id="path56" inkscape:connector-curvature="0" style="fill:#e40615"/>
		</g>
	</g>
	<g id="g66">
		<path class="st0" d="m 259,697.4 -1.2,-1.6 c -2.4,-3.1 -3.1,-6.1 -2.2,-8.8 1,-2.8 3.6,-4.8 7.8,-5.7 h 0.1 c 10.4,-2.5 20.2,-27.4 23.9,-42.5 2.9,-11.7 8.6,-33 17.4,-65.2 9,-33.1 21.3,-78.4 36.2,-134.7 l 0.5,-1.7 15.7,-7.9 -2.3,8.6 c -30.4,115.2 -49.1,190.8 -51.4,201.4 -1.5,6.9 -1.7,14.2 -1.8,20.7 -0.1,2.7 0,4.9 0.8,7.6 1.5,4.9 4.7,8.1 6.6,10 3.2,3.2 4.7,4.6 7.1,5.3 1,0.3 2,0.4 3.2,0.4 0.9,0 1.8,-0.1 2.6,-0.2 0.8,-0.1 1.6,-0.1 2.4,-0.1 0.9,0 3.8,0 5.8,2.5 1.8,2.2 2,5.3 0.7,9.2 l -0.9,2.7 z" id="path62" inkscape:connector-curvature="0" style="fill:#ffffff"/>
		<path class="st1" d="m 350.9,436.9 c -30.7,116.5 -49.1,190.9 -51.5,201.6 -1.5,7.1 -1.7,14.3 -1.9,21.5 -0.1,2.9 0,5.6 0.9,8.8 1.8,5.8 5.4,9.5 7.6,11.7 3.1,3.1 5.3,5.3 8.8,6.3 1.5,0.5 3,0.6 4.3,0.6 2,0 3.7,-0.3 5,-0.3 1.1,0 2,0.2 2.6,1 1.1,1.4 0.6,3.6 0,5.4 -22,0 -44,0 -65.9,0 -1,-1.3 -2.2,-3.3 -1.6,-5 0.8,-2.3 4.4,-3 5,-3.2 16.7,-4 26.8,-45.4 26.8,-45.4 5.9,-24.1 24.6,-90.4 53.5,-199.8 l 6.4,-3.2 m -9.7,-4.1 -3.2,1.6 -0.9,3.5 c -14.9,56.2 -27.2,101.5 -36.2,134.6 -8.8,32.2 -14.5,53.5 -17.4,65.3 0,0.1 -2.5,9.9 -6.8,20 -5.6,13.2 -11,18.8 -14.2,19.5 v 0 c -7,1.6 -9.7,5.4 -10.7,8.3 -1,2.8 -1.3,7.2 2.8,12.5 l 2.4,3.2 h 4 65.9 5.7 l 1.9,-5.3 c 2.3,-6.6 0.6,-10.7 -1.3,-13 -1.5,-1.8 -4.2,-4 -8.9,-4 -1,0 -1.9,0.1 -2.8,0.2 -0.8,0.1 -1.5,0.1 -2.3,0.1 -0.8,0 -1.4,-0.1 -2.1,-0.3 -1.5,-0.4 -2.5,-1.4 -5.4,-4.3 -1.7,-1.7 -4.4,-4.3 -5.6,-8.3 -0.6,-2.1 -0.7,-3.9 -0.6,-6.3 0.1,-6.3 0.3,-13.4 1.7,-19.9 2.3,-10.6 21,-86 51.4,-201.2 1,-3.7 2,-7.3 3,-11 -6.8,1.6 -13.6,3.2 -20.4,4.8 z" id="path64" inkscape:connector-curvature="0" style="fill:#e40615"/>
	</g>
	<g id="g70">
		<path class="st0" d="m 166.1,176.4 c 2.7,1.4 2.2,3.5 1.7,5.1 -1.7,5.6 -4.2,10.8 -9.1,14.5 -4,3 -8.3,5.4 -12.9,7.4 -4.7,2.1 -9.3,2.5 -14.1,1.6 -9.6,-1.7 -16.5,-10 -16.4,-19.7 0,-4 0.5,-8 0.7,-12 0.1,-1.6 0.8,-3.4 -1.6,-4.5 -0.5,0.7 -1.3,1.4 -1.6,2.3 -0.9,3 -1.4,6.2 -2.6,9 -1.2,2.9 -1.4,5.8 -1.4,8.8 0,2.2 -0.3,4.3 -0.3,6.5 0,1.8 0.1,3.7 0.6,5.4 2.3,8.2 7,14.5 14.5,18.8 5.8,3.3 11.7,4.1 18.2,1.9 7,-2.4 13.3,-6.1 19.1,-10.6 3,-2.3 5.5,-5 7.1,-8.3 4.2,-8.6 7.1,-17.5 6.9,-27.2 -0.1,-4.8 -1.9,-8.6 -5.1,-11.4 -2.4,-1.2 -5,-0.1 -6.6,-3 1.5,-1.5 3,-3.1 4.2,-4.2 4.9,-0.4 9,-1 13.2,-1 7.6,0 15.3,0.4 22.9,0.7 8.4,0.3 15.1,-3.3 20.8,-9 5.6,-5.5 10,-12 13.9,-18.8 1.2,-2.1 2,-4.6 2.6,-7 0.8,-3.6 1.3,-7.2 1.8,-10.8 0.3,-2.4 1,-4.9 -0.3,-7.5 -0.8,0.1 -1.8,-0.1 -2.4,0.4 -4.3,3.3 -8.6,6.7 -12.3,9.6 0.8,5.4 1.5,10 2.3,14.6 0.5,3.2 -0.6,5.3 -3.4,7 -5.2,3.1 -11,3.5 -16.7,4.2 -1.4,0.2 -2.9,-0.1 -5.1,-0.2 0.7,-1.7 1.1,-2.9 1.7,-3.9 0.9,-1.4 2.3,-2.5 3,-4 3.1,-6.1 3.6,-12.7 2.5,-19.2 -2.1,-2.4 -4.4,-4.3 -7.5,-3.2 -7.1,2.5 -12.4,6.9 -14.4,14.6 -1.1,4.4 -2.2,8.7 -1.9,13.3 0.1,1.1 -0.4,2.2 -0.7,3.8 -5.3,0.3 -10.4,0.8 -15.5,0.9 -5.8,0.1 -10.6,2.5 -14.4,6.7 -4.9,5.4 -7.2,11.8 -7.2,19.1 -0.1,5.2 1.7,9 6,11.5 3.6,0.2 6.9,0.6 9.8,-2.2 z m 364.7,-5.1 c -8.8,2.2 -15.5,-2.2 -21.7,-8.4 0.2,-1.5 0.3,-3.1 0.8,-4.6 2,-5.8 4.2,-11.5 6.2,-17.2 1.9,-5.1 3.6,-10.3 5.5,-15.4 2.3,-6.5 4.7,-13 7,-19.5 0.2,-0.6 -0.5,-1.6 -0.9,-2.5 -4.2,1.7 -8,3.3 -11.7,4.9 -1.1,2.3 -2.1,4.4 -3,6.5 -1.8,4.2 -3.6,8.5 -5.2,12.8 -2.6,6.8 -5.3,13.6 -7.7,20.4 -1.8,5.3 -3.2,10.7 -5,16 -1.1,3.1 -1.3,6.1 -0.8,9.8 5.9,4.5 12.2,8.5 19.9,7.6 3.6,1.6 3,5.2 4.9,7.2 4.5,3.1 6.4,3.9 11.7,3.3 7.6,-0.9 14.8,-3.1 21.9,-6.1 2.3,-1 3.9,-2.6 4.9,-4.7 2.4,-4.9 4.8,-9.8 6.9,-14.8 2.9,-6.7 5.6,-13.4 8.3,-20.2 2.2,-5.5 4.3,-11.1 6.4,-16.6 0.3,-0.8 0,-1.8 -0.1,-3.2 -4.9,2.1 -8.9,4.8 -12.8,7.4 -0.8,0.5 -1.4,1.5 -1.7,2.4 -3.1,8.7 -6.1,17.5 -9,26.2 -1.7,5.1 -3.3,10.3 -5,15.6 -4.9,0 -9.5,0 -14.3,0 -1.8,-2.2 -3.4,-4.2 -5.5,-6.9 z M 397.6,122.9 c -0.6,-3.7 -1.2,-6.3 -1.3,-9 -0.1,-3.1 -0.2,-6.3 0.4,-9.4 1.2,-5.9 3.7,-11.3 7.5,-16 0.8,-1 2.1,-2.1 1.1,-4 -6.6,3.6 -11.1,8.9 -14.6,14.9 -2.2,4 -4,8.5 -4.5,13 -0.7,6.2 -0.6,12.5 1.5,18.7 3.7,10.7 10.8,17.5 21.3,21.2 4,1.4 8,1.9 12.1,2.4 9.2,1.3 17.9,-0.3 25.6,-5.5 3.3,-2.2 6.3,-5.1 8.6,-8.3 3.8,-5.3 3.7,-11.2 0.3,-17.4 -1.9,-1.4 -4.2,-3.1 -6.4,-4.8 -2.3,-1.9 -4.8,-3.7 -6.8,-5.8 -3.1,-3.3 -3.1,-7.3 -0.1,-11.7 7,0 14.2,0 21.4,0 1.9,-2.9 3.5,-5.5 5.5,-8.6 -2,-0.7 -3.3,-1.5 -4.7,-1.6 -4.6,-0.4 -9.3,-0.5 -13.9,-0.9 -3.4,-0.3 -6.2,1 -8.8,2.8 -2.2,1.5 -4.2,3.3 -6,5.2 -2.9,3.2 -5.8,6.4 -7.4,10.6 -1.5,4 -2.3,9 2.4,12.7 1.8,1.4 3.7,2.8 5.6,4.1 3.1,2.2 6.4,4.2 9.3,6.7 2.7,2.3 2.7,4.4 1,8 -4,2.3 -8.3,2.9 -12.9,2.9 -4.9,0 -9.6,-0.7 -14.2,-2.1 -7.3,-2.2 -14,-5.4 -18.3,-12.1 -1.4,-1.9 -2.7,-4.2 -3.7,-6 z M 285.2,86.2 c -9.7,4.2 -15,17.6 -10.1,26.3 1.6,0.1 3.5,0.3 5.5,0.3 1.9,0 3.8,-0.2 5.9,-0.3 1,4.9 -0.9,8.6 -2.2,12.5 -3,0.8 -5.8,2.2 -8.7,2.3 -5,0.2 -9.8,1.3 -14.7,2.4 -8.2,2 -13.1,6.9 -16,14.7 -2.2,6.1 -4.1,12.3 -4.7,18.7 -0.7,7.5 -5.2,12.1 -11.6,14.9 -5,2.2 -10.2,3.9 -15.7,6 -0.8,2.7 -1.6,5.6 -2.5,8.8 0.5,0.8 1.1,1.6 1.9,2.8 3.3,-0.8 6.8,-1.2 10,-2.4 7.5,-3 13.9,-7.7 19.1,-14 1.4,-1.6 2.7,-3.5 3.4,-5.4 1.1,-2.9 1.8,-6 2.3,-9.1 1.2,-6.6 3.9,-12.6 7.1,-18.5 1.5,-2.6 3.7,-3.9 6.9,-4.2 4.3,-0.3 8.5,-1.3 12.4,-3.4 5.7,-3.1 11.6,-5.6 16.3,-10.3 2.5,-2.5 3.6,-5.4 4.2,-8.7 1.1,-5.8 0.9,-11.5 -0.3,-17.3 -0.7,-3.4 -1.3,-6.8 -2.4,-10.1 -0.7,-2.8 -2.5,-5.2 -6.1,-6 z m 54.3,32.6 c -1.5,3.5 -3.6,5.4 -5.9,7.1 -7.2,5.3 -15.7,7.6 -23.9,10.7 -4.9,1.9 -9.9,3.7 -14.8,5.7 -2.6,1 -5.1,2.2 -7.7,3.4 -0.8,0.4 -1.4,1.1 -2.1,1.7 1.3,2.6 3.4,2.9 5.6,3 4,0.3 7.9,0.7 11.9,0.9 9.3,0.5 18.3,0.1 25.3,-7.4 0.7,-0.7 1.6,-1.2 2.4,-1.8 6.4,-4.9 11.7,-10.8 16.2,-17.5 1.4,-2.1 2.4,-4.3 2.3,-7 -0.3,-16.3 -0.5,-32.6 -0.8,-48.9 0,-1.7 -0.7,-3.4 -1.2,-5.5 -4.2,1.7 -7.2,3.8 -9.1,6.5 0.6,17 1.2,33.4 1.8,49.1 z M 582,139.7 c -6.6,19.6 -13.2,38.9 -19.7,58.1 1,4.5 1.9,8.9 5.2,12.3 0.8,-0.4 1.6,-0.5 1.9,-1 3.7,-4.5 7,-9.2 8.3,-15.1 0.3,-1.4 0.9,-2.8 1.3,-4.3 1.7,-5.7 3.4,-11.4 5.1,-17.1 1.8,-6.4 3.5,-12.7 5.4,-19.1 1.8,-5.8 3.8,-11.6 5.5,-17.4 0.3,-1.1 -0.1,-2.4 -0.2,-4.5 -4.8,3.1 -8.8,5.6 -12.8,8.1 z m -211.1,-2.5 c 0,-3.1 0,-6.1 0,-9.1 -0.1,-6.7 -0.4,-13.3 -0.4,-20 0.1,-16.1 0.3,-32.3 0.4,-48.4 0,-1 -0.6,-2 -1.1,-3.5 -4.6,4.4 -7.4,9.3 -10.8,14 0,1.2 0,2.6 0,3.9 0.4,16.8 0.7,33.6 1.1,50.4 0.1,5.5 0.6,10.9 0.8,16.4 0.1,1.6 0.5,3 2.9,3.3 3.1,-0.9 4.3,-4.3 7.1,-7 z m 81.8,30.2 c 12.7,1.5 23.5,-3.2 33.6,-8.3 4.8,-8.3 2.7,-16.6 2.8,-24.6 0,-2.5 -0.5,-4.9 -2.3,-6.9 -4.4,-0.4 -7.6,1.4 -10.6,4.2 2.9,8.1 2,16 2.1,24.3 -9.1,0.9 -17.6,0.3 -25.8,-1.6 -2.8,6.2 -2.7,9.6 0.2,12.9 z M 321.2,68.8 c -3.9,4.3 -7.1,8.2 -9.2,12.9 -0.4,0.8 -0.1,1.9 0,2.9 0.4,7.1 0.9,14.3 1.2,21.4 0.2,5.2 0.2,10.3 0.2,15.5 0,2.1 0.3,4 2.6,5.8 1.5,-0.1 3.6,-0.3 6.2,-0.5 0.1,-18.6 0.1,-36.7 0.1,-54.9 -0.1,-0.7 -0.5,-1.4 -1.1,-3.1 z m 71.9,98.1 c 3.7,0.9 7.1,1.9 10.7,2.6 3.7,0.7 7.6,1 11.8,1.5 2.6,-3.4 5.1,-6.8 7.7,-10.3 -2.7,-2.8 -5.7,-1.7 -8.4,-2.1 -3,-0.5 -5.9,-0.8 -8.9,-1.3 -2.8,-0.5 -5.5,-1.2 -8.6,0.1 -0.8,3.2 -4.5,5.4 -4.3,9.5 z M 188.8,101.4 c 1.9,0 3.4,0.5 4.3,-0.1 5.7,-3.2 12.4,-4.5 16.6,-9.1 0.4,-2.9 0.9,-5.2 1.1,-7.5 0.1,-2.3 2.3,-4.6 0.1,-7.5 -7.1,3.9 -13.7,8.6 -20.7,12.8 -0.4,3.7 -0.9,7.3 -1.4,11.4 z m 19.8,79.6 c 1.6,-0.7 2.9,-0.9 3.9,-1.7 3.6,-2.6 6.9,-5.7 10.7,-8.1 3.2,-2 4.8,-4.9 5.9,-8.2 0.5,-1.4 1,-2.8 1.3,-4.3 0.2,-0.8 0,-1.8 0,-3.5 -3.1,1.5 -5.7,2.5 -8,3.9 -3.7,2.2 -7.5,4.4 -10.6,7.2 -3.7,3.7 -5,8.5 -3.2,14.7 z m -75.2,59.7 c 6.4,-2.8 12.4,-5.4 18.2,-7.9 1.6,-3.2 3.1,-10.5 2.7,-13.6 -7.5,2.9 -14.2,6.9 -21.2,10.8 0.4,3.4 -1.7,6.5 0.3,10.7 z m 219.9,-103 c -0.6,-2.8 0.8,-5.7 -1.8,-8.1 -4.3,1.2 -6.9,4.5 -9.4,7.7 0,1.9 0,3.7 0,6.1 1.4,1.3 2.9,2.8 4.9,4.7 0.8,2.4 -2.5,5.8 0.6,9.3 1.6,-0.5 3.4,-1 5,-1.6 0.4,-4.1 0.8,-7.7 1.2,-11.3 -1.3,-1.1 -2.6,-2.1 -4.2,-3.4 1.5,-1.3 2.4,-2.2 3.7,-3.4 z M 269.5,77.8 c 4.1,-2.8 7.5,-5 10.6,-7.1 1.2,-4.8 1.3,-9.5 0.2,-13.5 -4.5,1 -7.5,4.4 -11.4,6.8 0,4.4 -0.1,8.7 0.6,13.8 z m 274,58.1 c -4.5,2 -7.1,5.7 -10.1,8 -0.8,4 1.6,6.1 2.7,8.6 4.1,-0.8 8.9,-4.7 10.9,-8.8 -1.1,-2.4 -2.2,-4.9 -3.5,-7.8 z" id="path68" inkscape:connector-curvature="0" style="fill:#ffffff"/>
	</g>
</g>
</svg>